<?xml version="1.0" encoding="utf-8"?>
<!-- Generator: Adobe Illustrator 15.0.0, SVG Export Plug-In . SVG Version: 6.00 Build 0)  -->
<!DOCTYPE svg PUBLIC "-//W3C//DTD SVG 1.1//EN" "http://www.w3.org/Graphics/SVG/1.1/DTD/svg11.dtd" [
	<!ENTITY ns_extend "http://ns.adobe.com/Extensibility/1.0/">
	<!ENTITY ns_ai "http://ns.adobe.com/AdobeIllustrator/10.0/">
	<!ENTITY ns_graphs "http://ns.adobe.com/Graphs/1.0/">
	<!ENTITY ns_vars "http://ns.adobe.com/Variables/1.0/">
	<!ENTITY ns_imrep "http://ns.adobe.com/ImageReplacement/1.0/">
	<!ENTITY ns_sfw "http://ns.adobe.com/SaveForWeb/1.0/">
	<!ENTITY ns_custom "http://ns.adobe.com/GenericCustomNamespace/1.0/">
	<!ENTITY ns_adobe_xpath "http://ns.adobe.com/XPath/1.0/">
]>
<svg version="1.1" id="Layer_1" xmlns:x="&ns_extend;" xmlns:i="&ns_ai;" xmlns:graph="&ns_graphs;"
	 xmlns="http://www.w3.org/2000/svg" xmlns:xlink="http://www.w3.org/1999/xlink" x="0px" y="0px" width="98.045px" height="64px"
	 viewBox="0 0 98.045 64" enable-background="new 0 0 98.045 64" xml:space="preserve">
<metadata>
	<sfw  xmlns="&ns_sfw;">
		<slices></slices>
		<sliceSourceBounds  x="0" y="0" height="64" width="98.045" bottomLeftOrigin="true"></sliceSourceBounds>
	</sfw>
</metadata>
<g>
	<g>
		<defs>
			<rect id="SVGID_1_" width="98.045" height="64"/>
		</defs>
		<clipPath id="SVGID_2_">
			<use xlink:href="#SVGID_1_"  overflow="visible"/>
		</clipPath>
		<rect x="27.324" y="22.75" clip-path="url(#SVGID_2_)" fill="#FFFFFF" width="43.426" height="38.917"/>
		<rect x="20.66" y="22.75" clip-path="url(#SVGID_2_)" fill="#FFFFFF" width="6.667" height="35.25"/>
		<rect x="18.031" y="58.447" clip-path="url(#SVGID_2_)" fill="#FFFFFF" width="12.213" height="4.559"/>
		<rect x="70.432" y="22.641" clip-path="url(#SVGID_2_)" fill="#FFFFFF" width="6.667" height="35.25"/>
		<rect x="67.803" y="58.432" clip-path="url(#SVGID_2_)" fill="#FFFFFF" width="12.213" height="4.56"/>
		<g clip-path="url(#SVGID_2_)">
			<defs>
				<rect id="SVGID_3_" width="98.045" height="64"/>
			</defs>
			<clipPath id="SVGID_4_">
				<use xlink:href="#SVGID_3_"  overflow="visible"/>
			</clipPath>
			<path clip-path="url(#SVGID_4_)" fill="#044A66" d="M67.633,62H30.412c-0.222,0-0.401-0.224-0.401-0.5S30.19,61,30.412,61h37.221
				c0.222,0,0.401,0.224,0.401,0.5S67.854,62,67.633,62"/>
			<g opacity="0.2" clip-path="url(#SVGID_4_)">
				<g>
					<defs>
						<rect id="SVGID_5_" y="61" width="18.022" height="1"/>
					</defs>
					<clipPath id="SVGID_6_">
						<use xlink:href="#SVGID_5_"  overflow="visible"/>
					</clipPath>
					<path clip-path="url(#SVGID_6_)" fill="#FFFFFF" d="M17.622,62H0.401C0.179,62,0,61.776,0,61.5S0.179,61,0.401,61h17.221
						c0.221,0,0.401,0.224,0.401,0.5S17.843,62,17.622,62"/>
				</g>
			</g>
			<g opacity="0.2" clip-path="url(#SVGID_4_)">
				<g>
					<defs>
						<rect id="SVGID_7_" x="80.022" y="61" width="18.022" height="1"/>
					</defs>
					<clipPath id="SVGID_8_">
						<use xlink:href="#SVGID_7_"  overflow="visible"/>
					</clipPath>
					<path clip-path="url(#SVGID_8_)" fill="#FFFFFF" d="M97.645,62H80.424c-0.223,0-0.401-0.224-0.401-0.5s0.179-0.5,0.401-0.5
						h17.221c0.221,0,0.4,0.224,0.4,0.5S97.865,62,97.645,62"/>
				</g>
			</g>
			<g opacity="0.45" clip-path="url(#SVGID_4_)">
				<g>
					<defs>
						<rect id="SVGID_9_" x="22.317" y="22.193" width="1" height="36"/>
					</defs>
					<clipPath id="SVGID_10_">
						<use xlink:href="#SVGID_9_"  overflow="visible"/>
					</clipPath>
					<path clip-path="url(#SVGID_10_)" fill="#DBE7ED" d="M22.317,57.693v-35c0-0.276,0.224-0.5,0.5-0.5c0.276,0,0.5,0.224,0.5,0.5
						v35c0,0.275-0.224,0.5-0.5,0.5C22.541,58.193,22.317,57.969,22.317,57.693"/>
				</g>
			</g>
			<g opacity="0.45" clip-path="url(#SVGID_4_)">
				<g>
					<defs>
						<rect id="SVGID_11_" x="24.68" y="22.193" width="1" height="36"/>
					</defs>
					<clipPath id="SVGID_12_">
						<use xlink:href="#SVGID_11_"  overflow="visible"/>
					</clipPath>
					<path clip-path="url(#SVGID_12_)" fill="#DBE7ED" d="M24.68,57.693v-35c0-0.276,0.224-0.5,0.5-0.5c0.276,0,0.5,0.224,0.5,0.5
						v35c0,0.275-0.224,0.5-0.5,0.5C24.904,58.193,24.68,57.969,24.68,57.693"/>
				</g>
			</g>
			<path clip-path="url(#SVGID_4_)" fill="#044A66" d="M29.397,64H18.522c-0.827,0-1.5-0.673-1.5-1.5v-3.375
				c0-0.827,0.673-1.5,1.5-1.5h10.875c0.827,0,1.5,0.673,1.5,1.5V62.5C30.897,63.327,30.225,64,29.397,64 M18.522,58.625
				c-0.276,0-0.5,0.225-0.5,0.5V62.5c0,0.275,0.224,0.5,0.5,0.5h10.875c0.276,0,0.5-0.225,0.5-0.5v-3.375c0-0.275-0.224-0.5-0.5-0.5
				H18.522z"/>
			<path clip-path="url(#SVGID_4_)" fill="#FFFFFF" d="M18.522,17.812c-0.276,0-0.5,0.225-0.5,0.5v3.375c0,0.275,0.224,0.5,0.5,0.5
				h61c0.276,0,0.5-0.225,0.5-0.5v-3.375c0-0.275-0.224-0.5-0.5-0.5H18.522z"/>
			<path clip-path="url(#SVGID_4_)" fill="#044A66" d="M79.522,23.188h-61c-0.827,0-1.5-0.673-1.5-1.5v-3.375
				c0-0.827,0.673-1.5,1.5-1.5h61c0.827,0,1.5,0.673,1.5,1.5v3.375C81.022,22.515,80.35,23.188,79.522,23.188 M18.522,17.812
				c-0.276,0-0.5,0.225-0.5,0.5v3.375c0,0.275,0.224,0.5,0.5,0.5h61c0.276,0,0.5-0.225,0.5-0.5v-3.375c0-0.275-0.224-0.5-0.5-0.5
				H18.522z"/>
			<path clip-path="url(#SVGID_4_)" fill="#044A66" d="M26.397,58.603h-4.875c-0.827,0-1.5-0.673-1.5-1.5V23.728
				c0-0.827,0.673-1.5,1.5-1.5h4.875c0.827,0,1.5,0.673,1.5,1.5v33.375C27.897,57.93,27.225,58.603,26.397,58.603 M21.522,23.228
				c-0.276,0-0.5,0.225-0.5,0.5v33.375c0,0.275,0.224,0.5,0.5,0.5h4.875c0.276,0,0.5-0.225,0.5-0.5V23.728
				c0-0.275-0.224-0.5-0.5-0.5H21.522z"/>
			<g opacity="0.45" clip-path="url(#SVGID_4_)">
				<g>
					<defs>
						<rect id="SVGID_13_" x="72.442" y="22.193" width="1" height="36"/>
					</defs>
					<clipPath id="SVGID_14_">
						<use xlink:href="#SVGID_13_"  overflow="visible"/>
					</clipPath>
					<path clip-path="url(#SVGID_14_)" fill="#DBE7ED" d="M72.442,57.693v-35c0-0.276,0.224-0.5,0.5-0.5c0.275,0,0.5,0.224,0.5,0.5
						v35c0,0.275-0.225,0.5-0.5,0.5C72.666,58.193,72.442,57.969,72.442,57.693"/>
				</g>
			</g>
			<g opacity="0.45" clip-path="url(#SVGID_4_)">
				<g>
					<defs>
						<rect id="SVGID_15_" x="74.805" y="22.193" width="1" height="36"/>
					</defs>
					<clipPath id="SVGID_16_">
						<use xlink:href="#SVGID_15_"  overflow="visible"/>
					</clipPath>
					<path clip-path="url(#SVGID_16_)" fill="#DBE7ED" d="M74.805,57.693v-35c0-0.276,0.225-0.5,0.5-0.5c0.276,0,0.5,0.224,0.5,0.5
						v35c0,0.275-0.224,0.5-0.5,0.5C75.029,58.193,74.805,57.969,74.805,57.693"/>
				</g>
			</g>
			<path clip-path="url(#SVGID_4_)" fill="#044A66" d="M70.159,10.485V0.5c0-0.276,0.224-0.5,0.5-0.5s0.5,0.224,0.5,0.5v9.985
				c0,0.276-0.224,0.5-0.5,0.5S70.159,10.761,70.159,10.485"/>
			<path clip-path="url(#SVGID_4_)" fill="#00A3EC" d="M32.78,29.378h7.099c0.328,0,0.593,0.224,0.593,0.5s-0.265,0.5-0.593,0.5
				H32.78c-0.328,0-0.593-0.224-0.593-0.5S32.453,29.378,32.78,29.378"/>
			<path clip-path="url(#SVGID_4_)" fill="#00A3EC" d="M35.83,32.871v-5.985c0-0.276,0.224-0.5,0.5-0.5s0.5,0.224,0.5,0.5v5.985
				c0,0.275-0.224,0.5-0.5,0.5S35.83,33.146,35.83,32.871"/>
			<path clip-path="url(#SVGID_4_)" fill="#00A3EC" d="M45.593,29.378h7.1c0.327,0,0.593,0.224,0.593,0.5s-0.266,0.5-0.593,0.5h-7.1
				c-0.328,0-0.593-0.224-0.593-0.5S45.265,29.378,45.593,29.378"/>
			<path clip-path="url(#SVGID_4_)" fill="#00A3EC" d="M48.643,32.871v-5.985c0-0.276,0.224-0.5,0.5-0.5c0.276,0,0.5,0.224,0.5,0.5
				v5.985c0,0.275-0.224,0.5-0.5,0.5C48.867,33.371,48.643,33.146,48.643,32.871"/>
			<path clip-path="url(#SVGID_4_)" fill="#00A3EC" d="M58.155,29.378h7.099c0.328,0,0.594,0.224,0.594,0.5s-0.266,0.5-0.594,0.5
				h-7.099c-0.328,0-0.593-0.224-0.593-0.5S57.827,29.378,58.155,29.378"/>
			<path clip-path="url(#SVGID_4_)" fill="#00A3EC" d="M61.205,32.871v-5.985c0-0.276,0.224-0.5,0.5-0.5s0.5,0.224,0.5,0.5v5.985
				c0,0.275-0.224,0.5-0.5,0.5S61.205,33.146,61.205,32.871"/>
			<path clip-path="url(#SVGID_4_)" fill="#00A3EC" d="M32.78,38.816h7.099c0.328,0,0.593,0.224,0.593,0.5
				c0,0.275-0.265,0.5-0.593,0.5H32.78c-0.328,0-0.593-0.225-0.593-0.5C32.188,39.04,32.453,38.816,32.78,38.816"/>
			<path clip-path="url(#SVGID_4_)" fill="#00A3EC" d="M35.83,42.309v-5.985c0-0.275,0.224-0.5,0.5-0.5s0.5,0.225,0.5,0.5v5.985
				c0,0.275-0.224,0.5-0.5,0.5S35.83,42.584,35.83,42.309"/>
			<path clip-path="url(#SVGID_4_)" fill="#00A3EC" d="M45.593,38.816h7.1c0.327,0,0.593,0.224,0.593,0.5
				c0,0.275-0.266,0.5-0.593,0.5h-7.1c-0.328,0-0.593-0.225-0.593-0.5C45,39.04,45.265,38.816,45.593,38.816"/>
			<path clip-path="url(#SVGID_4_)" fill="#00A3EC" d="M48.643,42.309v-5.985c0-0.275,0.224-0.5,0.5-0.5c0.276,0,0.5,0.225,0.5,0.5
				v5.985c0,0.275-0.224,0.5-0.5,0.5C48.867,42.809,48.643,42.584,48.643,42.309"/>
			<path clip-path="url(#SVGID_4_)" fill="#00A3EC" d="M58.155,38.816h7.099c0.328,0,0.594,0.224,0.594,0.5
				c0,0.275-0.266,0.5-0.594,0.5h-7.099c-0.328,0-0.593-0.225-0.593-0.5C57.562,39.04,57.827,38.816,58.155,38.816"/>
			<path clip-path="url(#SVGID_4_)" fill="#00A3EC" d="M61.205,42.309v-5.985c0-0.275,0.224-0.5,0.5-0.5s0.5,0.225,0.5,0.5v5.985
				c0,0.275-0.224,0.5-0.5,0.5S61.205,42.584,61.205,42.309"/>
			<path clip-path="url(#SVGID_4_)" fill="#00A3EC" d="M32.78,48.191h7.099c0.328,0,0.593,0.224,0.593,0.5
				c0,0.275-0.265,0.5-0.593,0.5H32.78c-0.328,0-0.593-0.225-0.593-0.5C32.188,48.415,32.453,48.191,32.78,48.191"/>
			<path clip-path="url(#SVGID_4_)" fill="#00A3EC" d="M35.83,51.684v-5.985c0-0.275,0.224-0.5,0.5-0.5s0.5,0.225,0.5,0.5v5.985
				c0,0.275-0.224,0.5-0.5,0.5S35.83,51.959,35.83,51.684"/>
			<path clip-path="url(#SVGID_4_)" fill="#00A3EC" d="M58.155,48.191h7.099c0.328,0,0.594,0.224,0.594,0.5
				c0,0.275-0.266,0.5-0.594,0.5h-7.099c-0.328,0-0.593-0.225-0.593-0.5C57.562,48.415,57.827,48.191,58.155,48.191"/>
			<path clip-path="url(#SVGID_4_)" fill="#00A3EC" d="M61.205,51.684v-5.985c0-0.275,0.224-0.5,0.5-0.5s0.5,0.225,0.5,0.5v5.985
				c0,0.275-0.224,0.5-0.5,0.5S61.205,51.959,61.205,51.684"/>
			<path clip-path="url(#SVGID_4_)" fill="#044A66" d="M79.522,64H68.647c-0.827,0-1.5-0.673-1.5-1.5v-3.375
				c0-0.827,0.673-1.5,1.5-1.5h10.875c0.827,0,1.5,0.673,1.5,1.5V62.5C81.022,63.327,80.35,64,79.522,64 M68.647,58.625
				c-0.276,0-0.5,0.225-0.5,0.5V62.5c0,0.275,0.224,0.5,0.5,0.5h10.875c0.276,0,0.5-0.225,0.5-0.5v-3.375c0-0.275-0.224-0.5-0.5-0.5
				H68.647z"/>
			<path clip-path="url(#SVGID_4_)" fill="#044A66" d="M76.522,58.603h-4.875c-0.827,0-1.5-0.673-1.5-1.5V23.728
				c0-0.827,0.673-1.5,1.5-1.5h4.875c0.827,0,1.5,0.673,1.5,1.5v33.375C78.022,57.93,77.35,58.603,76.522,58.603 M71.647,23.228
				c-0.276,0-0.5,0.225-0.5,0.5v33.375c0,0.275,0.224,0.5,0.5,0.5h4.875c0.276,0,0.5-0.225,0.5-0.5V23.728
				c0-0.275-0.224-0.5-0.5-0.5H71.647z"/>
			<path clip-path="url(#SVGID_4_)" fill="#044A66" d="M51.96,61.932h-5.875c-0.827,0-1.5-0.674-1.5-1.5V49.057
				c0-0.827,0.673-1.5,1.5-1.5h5.875c0.827,0,1.5,0.673,1.5,1.5v11.375C53.46,61.258,52.787,61.932,51.96,61.932 M46.085,48.557
				c-0.276,0-0.5,0.225-0.5,0.5v11.375c0,0.274,0.224,0.5,0.5,0.5h5.875c0.276,0,0.5-0.226,0.5-0.5V49.057
				c0-0.275-0.224-0.5-0.5-0.5H46.085z"/>
			<path clip-path="url(#SVGID_4_)" fill="#00A3EC" d="M39.254,33.558h-5.875c-0.827,0-1.5-0.673-1.5-1.5v-4.375
				c0-0.827,0.673-1.5,1.5-1.5h5.875c0.827,0,1.5,0.673,1.5,1.5v4.375C40.754,32.885,40.081,33.558,39.254,33.558 M33.379,27.182
				c-0.276,0-0.5,0.225-0.5,0.5v4.375c0,0.274,0.224,0.5,0.5,0.5h5.875c0.276,0,0.5-0.226,0.5-0.5v-4.375c0-0.275-0.224-0.5-0.5-0.5
				H33.379z"/>
			<path clip-path="url(#SVGID_4_)" fill="#00A3EC" d="M64.587,33.558h-5.875c-0.827,0-1.5-0.673-1.5-1.5v-4.375
				c0-0.827,0.673-1.5,1.5-1.5h5.875c0.827,0,1.5,0.673,1.5,1.5v4.375C66.087,32.885,65.414,33.558,64.587,33.558 M58.712,27.182
				c-0.275,0-0.5,0.225-0.5,0.5v4.375c0,0.274,0.225,0.5,0.5,0.5h5.875c0.276,0,0.5-0.226,0.5-0.5v-4.375c0-0.275-0.224-0.5-0.5-0.5
				H58.712z"/>
			<path clip-path="url(#SVGID_4_)" fill="#FFFFFF" d="M75.521,5.375h-3.875c-0.827,0-1.5-0.673-1.5-1.5V2.5
				c0-0.827,0.673-1.5,1.5-1.5h3.875c0.827,0,1.5,0.673,1.5,1.5v1.375C77.021,4.702,76.349,5.375,75.521,5.375 M71.646,2
				c-0.276,0-0.5,0.225-0.5,0.5v1.375c0,0.275,0.224,0.5,0.5,0.5h3.875c0.275,0,0.5-0.225,0.5-0.5V2.5c0-0.275-0.225-0.5-0.5-0.5
				H71.646z"/>
			<path clip-path="url(#SVGID_4_)" fill="#00A3EC" d="M51.96,33.558h-5.875c-0.827,0-1.5-0.673-1.5-1.5v-4.375
				c0-0.827,0.673-1.5,1.5-1.5h5.875c0.827,0,1.5,0.673,1.5,1.5v4.375C53.46,32.885,52.787,33.558,51.96,33.558 M46.085,27.182
				c-0.276,0-0.5,0.225-0.5,0.5v4.375c0,0.274,0.224,0.5,0.5,0.5h5.875c0.276,0,0.5-0.226,0.5-0.5v-4.375c0-0.275-0.224-0.5-0.5-0.5
				H46.085z"/>
			<path clip-path="url(#SVGID_4_)" fill="#00A3EC" d="M39.254,42.974h-5.875c-0.827,0-1.5-0.673-1.5-1.5v-4.375
				c0-0.826,0.673-1.5,1.5-1.5h5.875c0.827,0,1.5,0.674,1.5,1.5v4.375C40.754,42.301,40.081,42.974,39.254,42.974 M33.379,36.599
				c-0.276,0-0.5,0.226-0.5,0.5v4.375c0,0.275,0.224,0.5,0.5,0.5h5.875c0.276,0,0.5-0.225,0.5-0.5v-4.375c0-0.274-0.224-0.5-0.5-0.5
				H33.379z"/>
			<path clip-path="url(#SVGID_4_)" fill="#00A3EC" d="M64.587,42.974h-5.875c-0.827,0-1.5-0.673-1.5-1.5v-4.375
				c0-0.826,0.673-1.5,1.5-1.5h5.875c0.827,0,1.5,0.674,1.5,1.5v4.375C66.087,42.301,65.414,42.974,64.587,42.974 M58.712,36.599
				c-0.275,0-0.5,0.226-0.5,0.5v4.375c0,0.275,0.225,0.5,0.5,0.5h5.875c0.276,0,0.5-0.225,0.5-0.5v-4.375c0-0.274-0.224-0.5-0.5-0.5
				H58.712z"/>
			<path clip-path="url(#SVGID_4_)" fill="#00A3EC" d="M39.254,52.391h-5.875c-0.827,0-1.5-0.673-1.5-1.5v-4.375
				c0-0.827,0.673-1.5,1.5-1.5h5.875c0.827,0,1.5,0.673,1.5,1.5v4.375C40.754,51.718,40.081,52.391,39.254,52.391 M33.379,46.016
				c-0.276,0-0.5,0.225-0.5,0.5v4.375c0,0.275,0.224,0.5,0.5,0.5h5.875c0.276,0,0.5-0.225,0.5-0.5v-4.375c0-0.275-0.224-0.5-0.5-0.5
				H33.379z"/>
			<path clip-path="url(#SVGID_4_)" fill="#00A3EC" d="M64.587,52.391h-5.875c-0.827,0-1.5-0.673-1.5-1.5v-4.375
				c0-0.827,0.673-1.5,1.5-1.5h5.875c0.827,0,1.5,0.673,1.5,1.5v4.375C66.087,51.718,65.414,52.391,64.587,52.391 M58.712,46.016
				c-0.275,0-0.5,0.225-0.5,0.5v4.375c0,0.275,0.225,0.5,0.5,0.5h5.875c0.276,0,0.5-0.225,0.5-0.5v-4.375c0-0.275-0.224-0.5-0.5-0.5
				H58.712z"/>
			<path clip-path="url(#SVGID_4_)" fill="#00A3EC" d="M51.96,42.974h-5.875c-0.827,0-1.5-0.673-1.5-1.5v-4.375
				c0-0.826,0.673-1.5,1.5-1.5h5.875c0.827,0,1.5,0.674,1.5,1.5v4.375C53.46,42.301,52.787,42.974,51.96,42.974 M46.085,36.599
				c-0.276,0-0.5,0.226-0.5,0.5v4.375c0,0.275,0.224,0.5,0.5,0.5h5.875c0.276,0,0.5-0.225,0.5-0.5v-4.375c0-0.274-0.224-0.5-0.5-0.5
				H46.085z"/>
			<path clip-path="url(#SVGID_4_)" fill="#FFFFFF" d="M21.376,14.438c0.169-0.094-0.502,0.225-0.502,0.5v1.375
				c0,0.275,0.225,0.5,0.502,0.5h55.166c0.277,0,0.501-0.225,0.501-0.5v-1.375c0-0.275-0.356-0.438-0.501-0.5
				C76.398,14.375,50.637,1,50.637,1h-1.511C49.126,1,21.208,14.532,21.376,14.438"/>
			<path clip-path="url(#SVGID_4_)" fill="#044A66" d="M76.522,17.812h-55c-0.827,0-1.5-0.673-1.5-1.5v-1.375
				c0-0.827,0.456-0.953,1.5-1.5S49.189,0,49.189,0h1.474c0,0,26.909,13.969,25.859,13.438s1.5,0.673,1.5,1.5v1.375
				C78.022,17.14,77.35,17.812,76.522,17.812 M21.522,14.438c0.169-0.094-0.5,0.225-0.5,0.5v1.375c0,0.275,0.224,0.5,0.5,0.5h55
				c0.276,0,0.5-0.225,0.5-0.5v-1.375c0-0.275-0.356-0.438-0.5-0.5S50.694,1,50.694,1h-1.505C49.189,1,21.354,14.532,21.522,14.438"
				/>
			<path clip-path="url(#SVGID_4_)" fill="#044A66" d="M46.502,54.875c0-0.398,0.323-0.721,0.721-0.721
				c0.398,0,0.72,0.322,0.72,0.721s-0.322,0.721-0.72,0.721C46.825,55.596,46.502,55.273,46.502,54.875"/>
		</g>
	</g>
</g>
</svg>
