<?xml version="1.0" encoding="utf-8"?>
<!-- Generator: Adobe Illustrator 15.0.0, SVG Export Plug-In . SVG Version: 6.00 Build 0)  -->
<!DOCTYPE svg PUBLIC "-//W3C//DTD SVG 1.1//EN" "http://www.w3.org/Graphics/SVG/1.1/DTD/svg11.dtd" [
	<!ENTITY ns_extend "http://ns.adobe.com/Extensibility/1.0/">
	<!ENTITY ns_ai "http://ns.adobe.com/AdobeIllustrator/10.0/">
	<!ENTITY ns_graphs "http://ns.adobe.com/Graphs/1.0/">
	<!ENTITY ns_vars "http://ns.adobe.com/Variables/1.0/">
	<!ENTITY ns_imrep "http://ns.adobe.com/ImageReplacement/1.0/">
	<!ENTITY ns_sfw "http://ns.adobe.com/SaveForWeb/1.0/">
	<!ENTITY ns_custom "http://ns.adobe.com/GenericCustomNamespace/1.0/">
	<!ENTITY ns_adobe_xpath "http://ns.adobe.com/XPath/1.0/">
]>
<svg version="1.1" id="Layer_1" xmlns:x="&ns_extend;" xmlns:i="&ns_ai;" xmlns:graph="&ns_graphs;"
	 xmlns="http://www.w3.org/2000/svg" xmlns:xlink="http://www.w3.org/1999/xlink" x="0px" y="0px" width="139.134px"
	 height="25.14px" viewBox="0 0 139.134 25.14" enable-background="new 0 0 139.134 25.14" xml:space="preserve">
<metadata>
	<sfw  xmlns="&ns_sfw;">
		<slices></slices>
		<sliceSourceBounds  x="0" y="0" height="25.14" width="139.134" bottomLeftOrigin="true"></sliceSourceBounds>
	</sfw>
</metadata>
<g>
	<g>
		<defs>
			<rect id="SVGID_1_" width="139.134" height="25.14"/>
		</defs>
		<clipPath id="SVGID_2_">
			<use xlink:href="#SVGID_1_"  overflow="visible"/>
		</clipPath>
		<g clip-path="url(#SVGID_2_)">
			<path fill="#1565C0" d="M12.644,21.112c-0.014-0.001-0.027-0.003-0.04-0.003c-0.033,0-0.065,0.002-0.097,0.003
				c-1.069,0.031-1.936,0.896-1.955,1.977c-0.019,1.082,0.818,1.978,1.887,2.045c0.031,0.002,0.061,0.006,0.092,0.006
				c0.07,0.002,0.14-0.001,0.208-0.007c1.018-0.085,1.825-0.929,1.844-1.972C14.603,22.06,13.738,21.153,12.644,21.112"/>
		</g>
		<g clip-path="url(#SVGID_2_)">
			<path fill="#1565C0" d="M12.634,15.08c-0.022-0.001-0.044-0.003-0.066-0.003c-0.023,0-0.044,0.002-0.066,0.003
				c-1.083,0.035-1.95,0.922-1.95,2.012c0,1.046,0.797,1.906,1.816,2.006c0.066,0.007,0.132,0.01,0.2,0.01
				c0.067,0,0.134-0.003,0.199-0.01c3.517-0.104,6.336-2.987,6.336-6.53c0-3.609-2.926-6.535-6.535-6.535
				c-3.5,0-6.358,2.752-6.527,6.21c-0.008,0.074-0.013,0.149-0.013,0.225c0,0.033,0.003,0.066,0.005,0.099
				c0.052,1.067,0.931,1.916,2.01,1.916c1.08,0,1.959-0.85,2.011-1.917c0.002-0.033,0.005-0.065,0.005-0.098
				c0-0.011-0.001-0.021-0.001-0.031c0.068-1.325,1.168-2.382,2.51-2.382c1.386,0,2.513,1.127,2.513,2.513
				C15.081,13.931,13.989,15.044,12.634,15.08"/>
		</g>
		<g clip-path="url(#SVGID_2_)">
			<path fill="#1565C0" d="M12.567,0C5.626,0,0,5.627,0,12.568c0,4.393,2.256,8.26,5.672,10.507c0.04,0.026,0.081,0.055,0.122,0.08
				c0.306,0.188,0.664,0.297,1.049,0.297c1.113,0,2.016-0.902,2.016-2.016c0-0.692-0.349-1.301-0.88-1.665
				c-0.013-0.008-0.026-0.016-0.038-0.024c-2.356-1.523-3.919-4.172-3.919-7.179c0-4.713,3.834-8.546,8.546-8.546
				c4.712,0,8.546,3.833,8.546,8.546c0,2.994-1.55,5.631-3.888,7.157c-0.03,0.02-0.061,0.04-0.091,0.06
				c-0.521,0.364-0.862,0.967-0.862,1.651c0,0.676,0.334,1.272,0.845,1.639c0.04,0.026,0.081,0.055,0.122,0.08
				c0.306,0.188,0.664,0.297,1.049,0.297c0.399,0,0.77-0.118,1.083-0.316c0.018-0.013,0.037-0.023,0.055-0.036
				c3.437-2.242,5.709-6.121,5.709-10.531C25.136,5.627,19.509,0,12.567,0"/>
		</g>
		<g clip-path="url(#SVGID_2_)">
			<path fill="#1565C0" d="M42.895,12.069c0,0.55-0.04,1.448-0.088,1.996c0,0-0.047,0.531-0.317,1.211
				c-0.269,0.681-0.514,0.983-0.514,0.983c-0.346,0.427-0.306,1.09,0.088,1.473l0.694,0.674c0.395,0.383,0.397,0.984,0.005,1.335
				c-0.392,0.352-1.038,0.327-1.436-0.053l-0.911-0.87c-0.398-0.38-1.016-0.59-1.374-0.467l-0.352,0.062
				c-0.352,0.062-0.716,0.092-1.091,0.092c-1.537,0-2.784-0.515-3.744-1.544c-0.958-1.028-1.273-2.905-1.273-2.905
				c-0.091-0.543-0.165-1.437-0.165-1.986v-0.306c0-0.55,0.075-1.444,0.166-1.986c0,0,0.314-1.87,1.272-2.902
				c0.96-1.032,2.204-1.548,3.735-1.548c1.566,0,2.842,0.516,3.827,1.548c0.985,1.032,1.308,2.902,1.308,2.902
				c0.094,0.542,0.17,1.436,0.17,1.986V12.069z M40.766,11.746c0-0.55-0.065-1.445-0.145-1.989c0,0-0.141-0.956-0.713-1.642
				c-0.571-0.686-1.344-1.029-2.318-1.029c-0.938,0-1.68,0.343-2.226,1.029c-0.545,0.686-0.679,1.641-0.679,1.641
				c-0.076,0.544-0.139,1.44-0.139,1.99v0.323c0,0.55,0.062,1.445,0.138,1.99c0,0,0.135,0.973,0.68,1.661
				c0.546,0.689,1.291,1.033,2.235,1.033c0.979,0,1.752-0.342,2.318-1.028s0.707-1.667,0.707-1.667
				c0.078-0.544,0.142-1.439,0.142-1.989V11.746z"/>
		</g>
		<g clip-path="url(#SVGID_2_)">
			<path fill="#1565C0" d="M42.088,20.115c-0.315,0-0.624-0.123-0.848-0.336l-0.911-0.87c-0.352-0.336-0.941-0.543-1.247-0.439
				l-0.371,0.066c-0.35,0.062-0.724,0.094-1.112,0.094c-1.565,0-2.855-0.533-3.835-1.584c-0.973-1.044-1.292-2.892-1.305-2.97
				c-0.092-0.55-0.167-1.45-0.167-2.007v-0.306c0-0.555,0.075-1.455,0.168-2.006c0.013-0.078,0.331-1.919,1.303-2.966
				c0.98-1.054,2.268-1.588,3.827-1.588c1.595,0,2.913,0.534,3.917,1.587c1,1.047,1.328,2.889,1.341,2.967
				c0.095,0.548,0.172,1.448,0.172,2.007v0.306c0,0.549-0.04,1.449-0.088,2.007c-0.002,0.022-0.052,0.558-0.325,1.246
				c-0.273,0.69-0.523,1.003-0.533,1.017c-0.308,0.379-0.272,0.964,0.078,1.304l0.694,0.674c0.219,0.212,0.341,0.501,0.335,0.793
				c-0.005,0.279-0.124,0.537-0.333,0.725C42.645,20.015,42.375,20.115,42.088,20.115z M39.276,18.191
				c0.397,0,0.89,0.216,1.227,0.536l0.911,0.87c0.338,0.322,0.937,0.346,1.266,0.051c0.158-0.142,0.247-0.334,0.25-0.544
				c0.004-0.226-0.087-0.442-0.259-0.608l-0.694-0.674c-0.441-0.429-0.485-1.164-0.098-1.642c0.002-0.002,0.238-0.3,0.495-0.95
				c0.259-0.653,0.308-1.171,0.309-1.176c0.048-0.552,0.087-1.442,0.087-1.985v-0.306c0-0.547-0.075-1.429-0.168-1.964
				c-0.003-0.019-0.329-1.845-1.275-2.837c-0.956-1.002-2.213-1.51-3.737-1.51c-1.487,0-2.712,0.507-3.644,1.508
				c-0.92,0.992-1.237,2.819-1.24,2.837c-0.09,0.541-0.164,1.422-0.164,1.965v0.306c0,0.545,0.073,1.428,0.164,1.966
				c0.003,0.019,0.32,1.853,1.241,2.841c0.931,0.998,2.16,1.504,3.653,1.504c0.374,0,0.733-0.03,1.069-0.09l0.353-0.062
				C39.083,18.205,39.175,18.191,39.276,18.191z M37.599,16.878c-0.98,0-1.765-0.363-2.333-1.08c-0.56-0.708-0.7-1.681-0.706-1.722
				c-0.077-0.55-0.139-1.451-0.139-2.008v-0.323c0-0.554,0.063-1.455,0.14-2.007c0.006-0.04,0.145-0.997,0.705-1.701
				c0.568-0.714,1.35-1.076,2.324-1.076c1.009,0,1.821,0.361,2.415,1.074c0.587,0.705,0.734,1.664,0.74,1.704
				c0.081,0.548,0.146,1.448,0.146,2.007v0.323c0,0.556-0.064,1.457-0.144,2.007c-0.006,0.042-0.153,1.023-0.734,1.729
				C39.426,16.517,38.614,16.878,37.599,16.878z M37.59,7.211c-0.906,0-1.602,0.321-2.128,0.981
				c-0.516,0.65-0.651,1.572-0.652,1.581c-0.076,0.543-0.138,1.428-0.138,1.972v0.323c0,0.547,0.062,1.433,0.137,1.973
				c0.001,0.01,0.137,0.948,0.654,1.602c0.525,0.663,1.225,0.985,2.137,0.985c0.937,0,1.684-0.331,2.221-0.982
				c0.538-0.652,0.679-1.597,0.68-1.605c0.078-0.541,0.141-1.425,0.141-1.972v-0.323c0-0.548-0.064-1.433-0.144-1.971
				c-0.001-0.009-0.144-0.93-0.686-1.58C39.269,7.542,38.521,7.211,37.59,7.211z"/>
		</g>
		<g clip-path="url(#SVGID_2_)">
			<path fill="#1565C0" d="M51.094,17.625c-0.048-0.383-0.36-0.337-0.693,0.102c0,0-0.073,0.096-0.53,0.368
				c-0.458,0.273-0.986,0.409-1.584,0.409c-1.02,0-1.818-0.325-2.392-0.977c-0.575-0.65-0.743-2.043-0.743-2.043
				c-0.066-0.546-0.12-1.441-0.12-1.992V9.801c0-0.55,0.45-1,1-1h0.129c0.55,0,1,0.45,1,1v3.71c0,0.55,0.043,1.448,0.095,1.996
				c0,0,0.04,0.42,0.311,0.754c0.269,0.335,0.677,0.502,1.222,0.502c0.516,0,0.948-0.093,1.298-0.277l0.348-0.185
				c0.261-0.341,0.475-1.07,0.475-1.62v-4.88c0-0.55,0.45-1,1-1h0.137c0.55,0,1,0.45,1,1v7.519c0,0.551-0.42,1-0.932,1
				C51.603,18.32,51.143,18.007,51.094,17.625"/>
		</g>
		<g clip-path="url(#SVGID_2_)">
			<path fill="#1565C0" d="M48.288,18.629c-1.054,0-1.89-0.343-2.486-1.019c-0.594-0.672-0.767-2.053-0.773-2.111
				c-0.067-0.553-0.121-1.453-0.121-2.007V9.801c0-0.62,0.505-1.125,1.125-1.125h0.129c0.62,0,1.125,0.505,1.125,1.125v3.71
				c0,0.545,0.042,1.435,0.094,1.984c0,0.004,0.041,0.388,0.284,0.687c0.246,0.308,0.614,0.456,1.125,0.456
				c0.492,0,0.909-0.089,1.24-0.263l0.323-0.172c0.236-0.327,0.433-1.015,0.433-1.522v-4.88c0-0.62,0.505-1.125,1.125-1.125h0.137
				c0.62,0,1.125,0.505,1.125,1.125v7.519c0,0.62-0.474,1.125-1.057,1.125c-0.575,0-1.089-0.36-1.145-0.804
				c-0.007-0.057-0.027-0.15-0.083-0.15c-0.069,0-0.212,0.082-0.387,0.312c-0.021,0.027-0.122,0.136-0.565,0.4
				C49.461,18.486,48.907,18.629,48.288,18.629z M46.032,8.926c-0.482,0-0.875,0.393-0.875,0.875v3.691
				c0,0.546,0.054,1.433,0.119,1.978c0.002,0.014,0.17,1.361,0.713,1.975c0.546,0.62,1.319,0.935,2.298,0.935
				c0.573,0,1.085-0.132,1.52-0.392c0.41-0.244,0.494-0.337,0.498-0.341c0.201-0.265,0.403-0.406,0.583-0.406
				c0.067,0,0.288,0.026,0.331,0.369c0.04,0.317,0.451,0.585,0.897,0.585c0.445,0,0.807-0.393,0.807-0.875V9.801
				c0-0.482-0.393-0.875-0.875-0.875H51.91c-0.482,0-0.875,0.393-0.875,0.875v4.88c0,0.574-0.225,1.336-0.5,1.696l-0.041,0.034
				l-0.348,0.185c-0.368,0.193-0.824,0.292-1.356,0.292c-0.583,0-1.027-0.185-1.32-0.549c-0.291-0.358-0.336-0.802-0.338-0.82
				c-0.052-0.556-0.095-1.457-0.095-2.008v-3.71c0-0.482-0.393-0.875-0.875-0.875H46.032z"/>
		</g>
		<g clip-path="url(#SVGID_2_)">
			<path fill="#1565C0" d="M59.364,18.504c-1.349,0-2.424-0.441-3.224-1.324c-0.801-0.882-1.044-2.412-1.044-2.412
				c-0.087-0.543-0.157-1.066-0.157-1.164c0-0.096,0.07-0.62,0.155-1.163c0,0,0.243-1.545,1.037-2.457
				c0.795-0.912,1.791-1.365,2.987-1.359c1.284,0,2.268,0.389,2.951,1.165c0.683,0.778,0.881,2.139,0.881,2.139
				c0.079,0.544,0.144,1.272,0.144,1.618s-0.45,0.629-1,0.629h-3.938c-0.55,0-1.004,0.01-1.009,0.021
				c-0.004,0.013,0.075,0.466,0.176,1.006c0,0,0.072,0.388,0.48,0.866c0.408,0.479,0.971,0.72,1.694,0.72
				c0.574,0,1.066-0.07,1.478-0.211l0.409-0.142c0.428-0.257,0.932-0.15,1.121,0.235c0.188,0.385-0.025,0.96-0.475,1.277
				c0,0-0.015,0.011-0.607,0.228C60.831,18.395,60.144,18.504,59.364,18.504 M59.118,10.34c-0.528,0-0.962,0.21-1.302,0.629
				c-0.34,0.42-0.392,0.627-0.392,0.627c-0.133,0.534-0.238,0.98-0.233,0.992c0.005,0.013,0.459,0.023,1.009,0.023h1.775
				c0.55,0,1-0.05,1-0.111c0-0.06-0.063-0.555-0.139-1.1c0,0-0.015-0.107-0.324-0.488C60.205,10.531,59.74,10.34,59.118,10.34"/>
		</g>
		<g clip-path="url(#SVGID_2_)">
			<path fill="#1565C0" d="M59.364,18.629c-1.38,0-2.496-0.459-3.316-1.365c-0.817-0.899-1.065-2.412-1.075-2.477
				c-0.076-0.476-0.158-1.063-0.158-1.184c0-0.114,0.08-0.691,0.156-1.182c0.01-0.064,0.258-1.591,1.066-2.52
				c0.811-0.931,1.84-1.402,3.058-1.402c1.338,0,2.362,0.406,3.068,1.208c0.7,0.797,0.902,2.146,0.911,2.204
				c0.08,0.551,0.146,1.286,0.146,1.636c0,0.423-0.494,0.754-1.125,0.754h-3.938c-0.406,0-0.709,0.005-0.866,0.011
				c0.026,0.159,0.081,0.466,0.156,0.868c0,0.004,0.074,0.365,0.452,0.809c0.387,0.455,0.91,0.676,1.599,0.676
				c0.557,0,1.041-0.068,1.438-0.204l0.408-0.142c0.149-0.093,0.339-0.147,0.527-0.147c0.332,0,0.611,0.167,0.748,0.446
				c0.215,0.439-0.017,1.083-0.515,1.435c-0.015,0.011-0.027,0.02-0.636,0.242C60.862,18.517,60.155,18.629,59.364,18.629z
				 M59.118,8.75c-1.166,0-2.131,0.443-2.893,1.316c-0.76,0.873-1.005,2.379-1.008,2.395c-0.09,0.577-0.153,1.066-0.153,1.143
				c0,0.083,0.066,0.59,0.155,1.145c0.002,0.015,0.247,1.504,1.013,2.348c0.771,0.852,1.825,1.283,3.131,1.283
				c0.762,0,1.44-0.107,2.016-0.319c0.523-0.191,0.59-0.221,0.596-0.223c0.377-0.269,0.577-0.782,0.417-1.11
				c-0.151-0.308-0.592-0.395-0.944-0.183l-0.432,0.152c-0.424,0.145-0.935,0.218-1.519,0.218c-0.756,0-1.358-0.257-1.79-0.764
				c-0.424-0.498-0.504-0.907-0.508-0.925c-0.189-1.011-0.182-1.033-0.172-1.065c0.043-0.105,0.045-0.109,1.128-0.109h3.938
				c0.474,0,0.875-0.23,0.875-0.504c0-0.341-0.064-1.059-0.143-1.6c-0.002-0.013-0.201-1.334-0.851-2.075
				C61.319,9.128,60.358,8.75,59.118,8.75L59.118,8.75z M59.975,12.736H58.2c-1.086,0-1.088-0.006-1.125-0.103
				c-0.018-0.045-0.023-0.057,0.229-1.067c0.006-0.024,0.069-0.247,0.416-0.675c0.363-0.448,0.834-0.675,1.399-0.675
				c0.659,0,1.161,0.208,1.491,0.618c0.299,0.368,0.345,0.507,0.351,0.549c0.057,0.404,0.141,1.035,0.141,1.117
				C61.1,12.594,61.1,12.736,59.975,12.736z M57.341,12.475c0.153,0.006,0.445,0.011,0.859,0.011h1.775
				c0.451,0,0.749-0.033,0.869-0.059c-0.017-0.157-0.066-0.54-0.132-1.01c0,0,0,0,0,0c-0.001,0-0.041-0.11-0.297-0.427
				c-0.281-0.349-0.717-0.525-1.297-0.525c-0.493,0-0.887,0.19-1.205,0.583c-0.311,0.384-0.368,0.579-0.369,0.581
				C57.45,12.01,57.377,12.314,57.341,12.475z"/>
		</g>
		<g clip-path="url(#SVGID_2_)">
			<path fill="#1565C0" d="M72.843,15.02c0-0.531-0.198-0.966-0.595-1.306c-0.396-0.339-1.149-0.593-1.149-0.593
				c-0.522-0.175-1.374-0.465-1.895-0.644c0,0-1.586-0.546-2.358-1.165c-0.771-0.619-1.156-1.43-1.156-2.432
				c0-1.032,0.426-1.884,1.279-2.552c0.854-0.669,1.955-1.002,3.304-1.002c1.408,0,2.538,0.379,3.392,1.138
				c0.854,0.76,1.045,1.751,1.045,1.751c0.105,0.54,0.188,0.993,0.183,1.008c-0.005,0.014-0.459,0.026-1.009,0.026h-0.05
				c-0.55,0-1.084-0.443-1.185-0.983c0,0-0.039-0.206-0.484-0.614c-0.446-0.408-1.083-0.611-1.909-0.611
				c-0.78,0-1.379,0.17-1.798,0.509c-0.42,0.34-0.63,0.779-0.63,1.317c0,0.485,0.227,0.889,0.682,1.211
				c0.455,0.322,1.307,0.602,1.307,0.602c0.522,0.171,1.373,0.465,1.89,0.652c0,0,1.485,0.539,2.2,1.189
				c0.716,0.651,1.074,1.481,1.074,2.49c0,1.067-0.427,1.917-1.28,2.548c-0.854,0.63-1.976,0.944-3.365,0.944
				c-1.336,0-2.511-0.355-3.519-1.068c-1.01-0.713-1.265-1.938-1.265-1.938c-0.113-0.539-0.201-0.991-0.196-1.006
				c0.005-0.014,0.459-0.026,1.009-0.026h0.059c0.55,0,1.087,0.441,1.194,0.981c0,0,0.075,0.381,0.615,0.765
				c0.54,0.386,1.24,0.577,2.103,0.577c0.791,0,1.408-0.16,1.848-0.478C72.622,15.994,72.843,15.564,72.843,15.02"/>
		</g>
		<g clip-path="url(#SVGID_2_)">
			<path fill="#1565C0" d="M70.335,18.629c-1.359,0-2.567-0.367-3.591-1.091c-1.038-0.733-1.304-1.963-1.315-2.015
				c-0.211-1.012-0.204-1.035-0.192-1.07c0.036-0.102,0.04-0.112,1.127-0.112h0.059c0.608,0,1.198,0.485,1.316,1.082
				c0,0.002,0.079,0.342,0.565,0.688c0.515,0.367,1.198,0.554,2.03,0.554c0.761,0,1.357-0.152,1.774-0.454
				c0.409-0.296,0.608-0.686,0.608-1.19c0-0.497-0.181-0.893-0.551-1.211c-0.372-0.318-1.101-0.566-1.108-0.569
				c-0.522-0.174-1.374-0.465-1.896-0.644c-0.065-0.022-1.615-0.56-2.395-1.186c-0.798-0.641-1.203-1.491-1.203-2.529
				c0-1.069,0.446-1.961,1.327-2.651c0.872-0.682,2.009-1.028,3.381-1.028c1.433,0,2.603,0.394,3.475,1.17
				c0.875,0.779,1.076,1.778,1.085,1.82c0.197,1.012,0.189,1.035,0.179,1.07c-0.035,0.102-0.039,0.112-1.128,0.112h-0.05
				c-0.609,0-1.196-0.487-1.308-1.085l0,0c0,0-0.055-0.187-0.445-0.544c-0.42-0.384-1.034-0.579-1.825-0.579
				c-0.746,0-1.325,0.162-1.72,0.481c-0.393,0.318-0.584,0.717-0.584,1.22c0,0.447,0.206,0.81,0.629,1.109
				c0.435,0.308,1.265,0.583,1.274,0.585c0.51,0.167,1.359,0.459,1.894,0.653c0.062,0.022,1.517,0.555,2.241,1.215
				c0.74,0.673,1.115,1.542,1.115,2.583c0,1.104-0.448,1.995-1.331,2.648C72.903,18.303,71.746,18.629,70.335,18.629z M65.5,14.605
				c0.029,0.156,0.089,0.46,0.174,0.868c0.002,0.012,0.259,1.187,1.215,1.86c0.98,0.694,2.14,1.046,3.446,1.046
				c1.356,0,2.464-0.31,3.291-0.92c0.815-0.603,1.229-1.427,1.229-2.447c0-0.967-0.348-1.773-1.033-2.398
				c-0.688-0.626-2.145-1.159-2.159-1.164c-0.531-0.193-1.378-0.484-1.886-0.651c-0.035-0.012-0.875-0.29-1.34-0.619
				c-0.488-0.345-0.735-0.787-0.735-1.313c0-0.575,0.228-1.051,0.677-1.414c0.44-0.356,1.072-0.537,1.877-0.537
				c0.855,0,1.526,0.217,1.993,0.644c0.453,0.415,0.516,0.642,0.523,0.683c0.089,0.478,0.575,0.881,1.062,0.881h0.05
				c0.406,0,0.711-0.006,0.866-0.013c-0.026-0.156-0.082-0.46-0.163-0.872c-0.002-0.01-0.195-0.961-1.005-1.682
				c-0.825-0.734-1.938-1.106-3.309-1.106c-1.315,0-2.401,0.328-3.227,0.976c-0.817,0.639-1.231,1.465-1.231,2.454
				c0,0.958,0.373,1.744,1.109,2.334c0.747,0.599,2.305,1.139,2.321,1.145c0.52,0.179,1.371,0.469,1.894,0.644
				c0.031,0.011,0.781,0.266,1.19,0.617c0.424,0.363,0.639,0.834,0.639,1.4c0,0.582-0.239,1.051-0.712,1.394
				c-0.461,0.332-1.106,0.501-1.921,0.501c-0.886,0-1.617-0.202-2.175-0.601c-0.574-0.407-0.662-0.824-0.665-0.842
				c-0.096-0.485-0.577-0.881-1.071-0.881h-0.059C65.965,14.591,65.658,14.598,65.5,14.605z"/>
		</g>
		<g clip-path="url(#SVGID_2_)">
			<path fill="#1565C0" d="M83.688,18.321c-0.55,0-1.062-0.215-1.14-0.476l-0.05-0.229l-0.05-0.229
				c-0.028-0.251-0.339-0.111-0.689,0.313c0,0-0.041,0.049-0.519,0.352c-0.479,0.301-1.014,0.452-1.606,0.452
				c-0.991,0-1.752-0.255-2.283-0.765c-0.53-0.511-0.796-1.211-0.796-2.103c0-0.921,0.364-1.638,1.091-2.152
				c0.728-0.512,2.077-0.66,2.077-0.66c0.547-0.06,1.368-0.109,1.825-0.109s0.831-0.188,0.831-0.418s-0.066-0.818-0.146-1.306
				l-0.294-0.282c-0.293-0.281-0.713-0.422-1.257-0.422c-0.488,0-0.875,0.117-1.162,0.352l-0.288,0.234
				c-0.079,0.37-0.593,0.672-1.143,0.672H78.03c-0.551,0-1.003-0.012-1.005-0.027c-0.002-0.014,0.088-0.467,0.199-1.005
				c0,0,0.091-0.437,0.804-1.019c0.713-0.579,1.642-0.87,2.784-0.87c1.109,0,2.003,0.281,2.685,0.844
				c0.679,0.563,0.841,1.445,0.841,1.445c0.099,0.541,0.179,1.434,0.179,1.984v2.232c0,0.55,0.012,1.346,0.026,1.769l0.053,0.361
				l0.053,0.36c0.111,0.385-0.248,0.7-0.798,0.7H83.688z M80.064,16.79c0.54,0,1.026-0.135,1.456-0.405l0.433-0.269
				c0.233-0.36,0.426-0.972,0.426-1.358s-0.382-0.704-0.849-0.704s-1.295,0.062-1.84,0.137c0,0-0.118,0.018-0.471,0.325
				c-0.351,0.309-0.527,0.67-0.527,1.087c0,0.363,0.119,0.652,0.356,0.866C79.287,16.682,79.626,16.79,80.064,16.79"/>
		</g>
		<g clip-path="url(#SVGID_2_)">
			<path fill="#1565C0" d="M79.634,18.629c-1.02,0-1.817-0.269-2.37-0.8c-0.554-0.533-0.834-1.271-0.834-2.192
				c0-0.958,0.385-1.717,1.144-2.254c0.746-0.525,2.079-0.676,2.136-0.682c0.551-0.061,1.375-0.11,1.839-0.11
				c0.431,0,0.706-0.173,0.706-0.293c0-0.216-0.062-0.767-0.138-1.245l-0.265-0.253c-0.268-0.257-0.661-0.387-1.17-0.387
				c-0.456,0-0.82,0.109-1.083,0.323l-0.256,0.208c-0.12,0.411-0.658,0.726-1.254,0.726H78.03c-1.11,0-1.111-0.008-1.129-0.135
				c-0.003-0.022-0.006-0.046,0.201-1.047c0.004-0.02,0.108-0.487,0.847-1.09C78.684,8.802,79.646,8.5,80.812,8.5
				c1.134,0,2.063,0.293,2.765,0.873c0.705,0.585,0.877,1.481,0.884,1.519c0.1,0.547,0.181,1.447,0.181,2.006v2.232
				c0,0.555,0.012,1.346,0.026,1.765l0.104,0.707c0.05,0.169,0.017,0.354-0.097,0.504c-0.162,0.216-0.463,0.34-0.825,0.34h-0.163
				c-0.537,0-1.155-0.211-1.26-0.565l-0.109-0.504c-0.028,0.011-0.197,0.082-0.463,0.403c-0.045,0.054-0.323,0.235-0.548,0.378
				C80.81,18.471,80.246,18.629,79.634,18.629z M80.682,10.164c0.576,0,1.027,0.154,1.344,0.457l0.323,0.311l0.007,0.042
				c0.082,0.498,0.148,1.093,0.148,1.326c0,0.31-0.411,0.543-0.956,0.543c-0.456,0-1.269,0.048-1.812,0.108
				c-0.014,0.001-1.326,0.151-2.019,0.638c-0.698,0.494-1.038,1.165-1.038,2.05c0,0.852,0.255,1.528,0.758,2.013
				c0.504,0.484,1.243,0.729,2.196,0.729c0.564,0,1.083-0.146,1.54-0.433c0.425-0.27,0.494-0.332,0.497-0.335
				c0.141-0.171,0.426-0.475,0.662-0.475c0.103,0,0.22,0.062,0.239,0.236l0.098,0.445c0.052,0.173,0.499,0.377,1.018,0.377h0.163
				c0.278,0,0.513-0.09,0.625-0.24c0.067-0.089,0.085-0.189,0.053-0.3l-0.109-0.739c-0.016-0.434-0.027-1.229-0.027-1.786v-2.232
				c0-0.547-0.079-1.427-0.177-1.961c-0.001-0.008-0.163-0.846-0.798-1.372c-0.654-0.541-1.531-0.815-2.604-0.815
				c-1.107,0-2.018,0.283-2.705,0.842c-0.661,0.539-0.76,0.944-0.761,0.949c-0.079,0.383-0.143,0.701-0.175,0.867
				c0.156,0.007,0.457,0.013,0.858,0.013h0.059c0.486,0,0.954-0.262,1.021-0.573l0.009-0.043l0.322-0.262
				C79.748,10.292,80.166,10.164,80.682,10.164z M80.064,16.915c-0.468,0-0.838-0.119-1.099-0.354
				c-0.265-0.238-0.398-0.561-0.398-0.959c0-0.451,0.191-0.848,0.569-1.181c0.344-0.3,0.489-0.349,0.535-0.355
				c0.56-0.076,1.393-0.138,1.858-0.138c0.537,0,0.974,0.372,0.974,0.829c0,0.407-0.2,1.047-0.446,1.427l-0.038,0.038l-0.433,0.269
				C81.14,16.772,80.627,16.915,80.064,16.915z M79.707,14.314c0.004,0-0.107,0.036-0.405,0.295
				c-0.326,0.287-0.484,0.612-0.484,0.993c0,0.329,0.104,0.582,0.315,0.773c0.214,0.191,0.527,0.289,0.932,0.289
				c0.515,0,0.982-0.13,1.39-0.386l0.409-0.254c0.213-0.343,0.391-0.916,0.391-1.268c0-0.319-0.324-0.579-0.724-0.579
				C81.074,14.178,80.256,14.239,79.707,14.314L79.707,14.314z"/>
		</g>
		<g clip-path="url(#SVGID_2_)">
			<path fill="#1565C0" d="M95.117,13.785c0,0.052-0.057,0.539-0.128,1.084c0,0-0.195,1.518-0.844,2.364
				c-0.647,0.849-1.561,1.271-2.74,1.271c-0.593,0-1.106-0.12-1.544-0.36c-0.437-0.24-0.467-0.278-0.467-0.278
				c-0.346-0.428-0.676-0.501-0.734-0.161c-0.058,0.339-0.509,0.615-1.003,0.615c-0.493,0-0.896-0.449-0.896-1V5.596
				c0-0.55,0.45-1,1-1h0.138c0.55,0,1,0.45,1,1v3.287c0,0.55,0.29,0.678,0.645,0.285l0.412-0.217
				c0.408-0.217,0.888-0.326,1.433-0.326c1.19,0,2.11,0.463,2.758,1.39c0.648,0.927,0.855,2.684,0.855,2.684
				C95.065,13.247,95.117,13.734,95.117,13.785 M92.98,13.785c0-0.051-0.043-0.541-0.095-1.087c0,0-0.076-0.796-0.416-1.407
				c-0.34-0.609-0.88-0.915-1.619-0.915c-0.474,0-0.872,0.106-1.191,0.317l-0.319,0.211c-0.243,0.368-0.441,1.119-0.441,1.669v1.995
				c0,0.55,0.195,1.305,0.434,1.675l0.322,0.209c0.322,0.207,0.728,0.312,1.215,0.312c0.739,0,1.275-0.26,1.609-0.779
				c0.334-0.519,0.397-1.111,0.397-1.111C92.934,14.325,92.98,13.836,92.98,13.785"/>
		</g>
		<g clip-path="url(#SVGID_2_)">
			<path fill="#1565C0" d="M91.405,18.629c-0.61,0-1.15-0.126-1.604-0.376c-0.458-0.252-0.49-0.293-0.504-0.31
				c-0.195-0.242-0.356-0.328-0.436-0.328c-0.018,0-0.059,0-0.078,0.11c-0.068,0.402-0.563,0.719-1.126,0.719
				c-0.563,0-1.021-0.505-1.021-1.125V5.596c0-0.62,0.505-1.125,1.125-1.125h0.138c0.62,0,1.125,0.505,1.125,1.125v3.287
				c0,0.232,0.059,0.388,0.146,0.388c0.07,0,0.175-0.07,0.28-0.187l0.034-0.027l0.412-0.217c0.426-0.226,0.928-0.34,1.491-0.34
				c1.229,0,2.191,0.486,2.86,1.443c0.659,0.942,0.868,2.668,0.877,2.741c0.058,0.489,0.117,1.034,0.117,1.1
				c0,0.068-0.066,0.624-0.129,1.101c-0.008,0.062-0.207,1.561-0.868,2.424C93.576,18.185,92.621,18.629,91.405,18.629z
				 M89.491,17.786c0.003,0,0.085,0.059,0.431,0.249c0.416,0.229,0.916,0.345,1.483,0.345c1.149,0,2.014-0.399,2.641-1.223
				c0.62-0.81,0.817-2.289,0.819-2.304c0.076-0.58,0.126-1.021,0.127-1.069c-0.001-0.044-0.045-0.474-0.115-1.07
				c-0.002-0.017-0.211-1.737-0.834-2.627C93.424,9.2,92.53,8.75,91.388,8.75c-0.522,0-0.984,0.105-1.374,0.312L89.62,9.269
				c-0.155,0.167-0.307,0.252-0.45,0.252c-0.094,0-0.396-0.046-0.396-0.638V5.596c0-0.482-0.393-0.875-0.875-0.875h-0.138
				c-0.482,0-0.875,0.393-0.875,0.875V17.32c0,0.482,0.346,0.875,0.771,0.875c0.43,0,0.833-0.234,0.88-0.511
				c0.034-0.199,0.155-0.318,0.324-0.318C89.048,17.366,89.271,17.515,89.491,17.786L89.491,17.786z M90.869,16.888
				c-0.508,0-0.939-0.111-1.282-0.332l-0.36-0.247c-0.25-0.388-0.453-1.17-0.453-1.742v-1.995c0-0.573,0.207-1.353,0.462-1.738
				l0.035-0.035l0.319-0.211c0.34-0.224,0.764-0.338,1.261-0.338c0.784,0,1.365,0.33,1.729,0.979
				c0.349,0.627,0.428,1.423,0.431,1.457c0.033,0.348,0.096,1.025,0.096,1.099c0,0.065-0.054,0.616-0.105,1.101
				c-0.003,0.026-0.07,0.629-0.416,1.166C92.227,16.607,91.65,16.888,90.869,16.888z M89.423,16.152l0.3,0.194
				c0.302,0.193,0.688,0.292,1.146,0.292c0.7,0,1.192-0.236,1.504-0.722c0.313-0.486,0.378-1.052,0.379-1.058
				c0.061-0.574,0.103-1.027,0.104-1.074c0-0.044-0.036-0.468-0.094-1.076c-0.001-0.007-0.078-0.778-0.401-1.358
				c-0.319-0.572-0.813-0.851-1.51-0.851c-0.447,0-0.825,0.1-1.122,0.296l-0.298,0.197c-0.222,0.353-0.407,1.067-0.407,1.579v1.995
				C89.023,15.079,89.205,15.795,89.423,16.152z"/>
		</g>
		<g clip-path="url(#SVGID_2_)">
			<path fill="#1565C0" d="M101.047,18.504c-1.349,0-2.424-0.441-3.224-1.324c-0.801-0.882-1.044-2.412-1.044-2.412
				c-0.087-0.543-0.157-1.066-0.157-1.164c0-0.096,0.07-0.62,0.155-1.163c0,0,0.243-1.545,1.037-2.457
				c0.795-0.912,1.791-1.365,2.987-1.359c1.283,0,2.268,0.389,2.951,1.165c0.684,0.778,0.882,2.139,0.882,2.139
				c0.078,0.544,0.144,1.272,0.144,1.618s-0.45,0.629-1,0.629h-3.939c-0.55,0-1.004,0.01-1.009,0.021
				c-0.004,0.013,0.075,0.466,0.176,1.006c0,0,0.072,0.388,0.48,0.866c0.408,0.479,0.971,0.72,1.694,0.72
				c0.573,0,1.065-0.07,1.478-0.211l0.409-0.142c0.428-0.257,0.932-0.15,1.121,0.235c0.188,0.385-0.025,0.96-0.475,1.277
				c0,0-0.016,0.011-0.607,0.228C102.515,18.395,101.827,18.504,101.047,18.504 M100.802,10.34c-0.528,0-0.963,0.21-1.303,0.629
				c-0.34,0.42-0.392,0.627-0.392,0.627c-0.133,0.534-0.238,0.98-0.233,0.992c0.005,0.013,0.459,0.023,1.009,0.023h1.775
				c0.55,0,1-0.05,1-0.111c0-0.06-0.062-0.555-0.139-1.1c0,0-0.016-0.107-0.324-0.488C101.889,10.531,101.423,10.34,100.802,10.34"
				/>
		</g>
		<g clip-path="url(#SVGID_2_)">
			<path fill="#1565C0" d="M101.047,18.629c-1.38,0-2.495-0.459-3.316-1.365c-0.816-0.899-1.064-2.412-1.074-2.477
				c-0.078-0.487-0.159-1.063-0.159-1.184c0-0.117,0.081-0.696,0.157-1.182c0.01-0.064,0.258-1.591,1.065-2.52
				c0.812-0.931,1.841-1.402,3.06-1.402c1.337,0,2.361,0.406,3.067,1.208c0.7,0.797,0.903,2.146,0.912,2.204
				c0.079,0.556,0.145,1.291,0.145,1.636c0,0.416-0.505,0.754-1.125,0.754h-3.939c-0.406,0-0.709,0.005-0.866,0.011
				c0.026,0.157,0.08,0.46,0.156,0.869c0,0.003,0.074,0.364,0.452,0.808c0.388,0.455,0.911,0.676,1.6,0.676
				c0.557,0,1.04-0.068,1.438-0.204l0.408-0.142c0.148-0.093,0.339-0.147,0.526-0.147c0.331,0,0.611,0.167,0.748,0.446
				c0.215,0.438-0.016,1.082-0.515,1.435c-0.017,0.011-0.03,0.021-0.637,0.242C102.546,18.517,101.839,18.629,101.047,18.629z
				 M100.802,8.75c-1.166,0-2.132,0.443-2.894,1.316c-0.76,0.873-1.005,2.379-1.008,2.395c-0.092,0.587-0.153,1.066-0.153,1.143
				c0,0.081,0.063,0.571,0.155,1.145c0.003,0.015,0.248,1.504,1.014,2.348c0.771,0.852,1.824,1.283,3.131,1.283
				c0.762,0,1.44-0.107,2.017-0.319c0.525-0.192,0.591-0.221,0.597-0.224c0.378-0.269,0.576-0.781,0.416-1.109
				c-0.15-0.309-0.595-0.394-0.944-0.183l-0.433,0.152c-0.424,0.145-0.935,0.218-1.519,0.218c-0.756,0-1.358-0.257-1.789-0.764
				c-0.426-0.498-0.506-0.907-0.509-0.925c-0.188-1.013-0.183-1.031-0.172-1.065c0.043-0.105,0.045-0.109,1.128-0.109h3.939
				c0.475,0,0.875-0.23,0.875-0.504c0-0.336-0.063-1.054-0.143-1.601c-0.002-0.013-0.201-1.333-0.852-2.074
				C103.003,9.128,102.041,8.75,100.802,8.75L100.802,8.75z M101.658,12.736h-1.775c-1.086,0-1.088-0.006-1.125-0.103
				c-0.019-0.045-0.023-0.057,0.229-1.067c0.006-0.024,0.068-0.246,0.415-0.675c0.364-0.448,0.835-0.675,1.4-0.675
				c0.659,0,1.16,0.208,1.491,0.618c0.298,0.368,0.344,0.506,0.351,0.549c0.056,0.403,0.14,1.032,0.14,1.118
				C102.783,12.594,102.783,12.736,101.658,12.736z M99.024,12.475c0.153,0.006,0.445,0.011,0.858,0.011h1.775
				c0.45,0,0.749-0.033,0.868-0.059c-0.017-0.159-0.066-0.547-0.131-1.01c0,0,0,0,0,0c-0.001,0-0.041-0.11-0.297-0.427
				c-0.281-0.349-0.718-0.525-1.297-0.525c-0.493,0-0.888,0.19-1.206,0.583c-0.311,0.384-0.367,0.579-0.367,0.58
				C99.132,12.015,99.061,12.315,99.024,12.475z"/>
		</g>
		<g clip-path="url(#SVGID_2_)">
			<path fill="#1565C0" d="M111.852,15.734c0-0.328-0.142-0.602-0.423-0.819c-0.281-0.216-0.61-0.306-0.61-0.306
				c-0.531-0.146-1.397-0.392-1.925-0.545c0,0-1.038-0.303-1.621-0.745c-0.584-0.443-0.876-1.045-0.876-1.808
				c0-0.798,0.337-1.478,1.013-2.041c0.673-0.563,1.562-0.844,2.665-0.844c1.161,0,2.084,0.285,2.767,0.857
				c0.684,0.572,0.793,1.142,0.793,1.142c0.104,0.541,0.185,0.995,0.18,1.009c-0.006,0.015-0.459,0.027-1.01,0.027h-0.05
				c-0.55,0-1.066-0.329-1.148-0.731l-0.3-0.281c-0.3-0.282-0.71-0.422-1.231-0.422c-0.517,0-0.909,0.115-1.179,0.347
				c-0.271,0.232-0.405,0.515-0.405,0.849s0.128,0.6,0.383,0.796c0.255,0.197,0.583,0.28,0.583,0.28
				c0.533,0.134,1.403,0.367,1.931,0.518c0,0,1.123,0.32,1.7,0.768c0.578,0.449,0.867,1.06,0.867,1.834
				c0,0.857-0.354,1.552-1.061,2.086c-0.706,0.533-1.639,0.8-2.794,0.8c-1.237,0-2.214-0.316-2.929-0.95
				c-0.716-0.634-0.828-1.2-0.828-1.2c-0.105-0.54-0.188-0.993-0.184-1.008c0.005-0.014,0.456-0.025,1.003-0.025
				s1.094,0.429,1.217,0.953l0.375,0.252c0.376,0.252,0.833,0.379,1.373,0.379c0.551,0,0.978-0.106,1.275-0.317
				C111.702,16.376,111.852,16.091,111.852,15.734"/>
		</g>
		<g clip-path="url(#SVGID_2_)">
			<path fill="#1565C0" d="M110.1,18.629c-1.264,0-2.277-0.33-3.012-0.981c-0.738-0.654-0.863-1.245-0.868-1.27
				c-0.198-1.016-0.191-1.034-0.179-1.071c0.035-0.102,0.039-0.111,1.121-0.111c0.585,0,1.169,0.444,1.326,1.001l0.335,0.226
				c0.354,0.237,0.793,0.357,1.304,0.357c0.522,0,0.928-0.099,1.203-0.294c0.267-0.188,0.396-0.434,0.396-0.752
				c0-0.29-0.122-0.525-0.374-0.721c-0.257-0.197-0.564-0.283-0.567-0.284c-0.532-0.146-1.398-0.392-1.927-0.545
				c-0.043-0.013-1.067-0.314-1.661-0.766c-0.614-0.466-0.926-1.108-0.926-1.908c0-0.833,0.355-1.552,1.058-2.137
				c0.692-0.579,1.616-0.873,2.745-0.873c1.188,0,2.145,0.298,2.847,0.886c0.71,0.594,0.831,1.189,0.836,1.214
				c0.194,1.017,0.188,1.037,0.175,1.073c-0.039,0.099-0.044,0.111-1.128,0.111h-0.05c-0.589,0-1.144-0.351-1.262-0.791
				l-0.272-0.255c-0.273-0.258-0.659-0.388-1.146-0.388c-0.483,0-0.853,0.106-1.098,0.317c-0.243,0.209-0.361,0.456-0.361,0.754
				c0,0.296,0.109,0.524,0.334,0.697c0.23,0.178,0.534,0.257,0.538,0.258c0.553,0.139,1.42,0.372,1.934,0.519
				c0.047,0.013,1.153,0.332,1.743,0.79c0.607,0.472,0.915,1.122,0.915,1.933c0,0.893-0.373,1.628-1.11,2.186
				C112.244,18.352,111.278,18.629,110.1,18.629z M106.302,15.458c0.027,0.16,0.085,0.471,0.164,0.871
				c0.001,0.005,0.117,0.537,0.788,1.131c0.688,0.609,1.645,0.919,2.846,0.919c1.123,0,2.038-0.261,2.719-0.774
				c0.68-0.515,1.011-1.164,1.011-1.986c0-0.739-0.268-1.307-0.819-1.735c-0.551-0.429-1.646-0.743-1.657-0.747
				c-0.512-0.146-1.376-0.378-1.927-0.517c-0.015-0.003-0.356-0.092-0.629-0.302c-0.286-0.221-0.432-0.521-0.432-0.895
				c0-0.371,0.151-0.688,0.449-0.944c0.291-0.25,0.715-0.377,1.26-0.377c0.552,0,0.995,0.153,1.317,0.456l0.328,0.309l0.008,0.039
				c0.07,0.342,0.54,0.631,1.026,0.631h0.05c0.407,0,0.712-0.006,0.868-0.014c-0.027-0.162-0.085-0.476-0.161-0.874
				c-0.001-0.005-0.114-0.537-0.75-1.07c-0.656-0.549-1.56-0.828-2.687-0.828c-1.068,0-1.938,0.274-2.585,0.815
				c-0.651,0.543-0.968,1.179-0.968,1.945c0,0.728,0.271,1.286,0.826,1.708c0.558,0.423,1.57,0.722,1.581,0.725
				c0.526,0.153,1.392,0.398,1.923,0.545c0.014,0.004,0.355,0.099,0.653,0.326c0.313,0.243,0.472,0.552,0.472,0.919
				c0,0.399-0.169,0.722-0.502,0.956c-0.319,0.226-0.772,0.34-1.348,0.34c-0.562,0-1.047-0.135-1.442-0.4l-0.416-0.279l-0.012-0.048
				c-0.108-0.464-0.61-0.856-1.095-0.856C106.76,15.446,106.457,15.452,106.302,15.458z"/>
		</g>
		<g clip-path="url(#SVGID_2_)">
			<path fill="#1565C0" d="M118.221,17.32c0,0.551-0.45,1-1,1h-0.13c-0.55,0-1-0.449-1-1v-0.049c0-0.55,0.45-1,1-1h0.13
				c0.55,0,1,0.45,1,1V17.32z"/>
		</g>
		<g clip-path="url(#SVGID_2_)">
			<path fill="#1565C0" d="M117.221,18.445h-0.13c-0.62,0-1.125-0.505-1.125-1.125v-0.049c0-0.62,0.505-1.125,1.125-1.125h0.13
				c0.62,0,1.125,0.505,1.125,1.125v0.049C118.346,17.94,117.841,18.445,117.221,18.445z M117.091,16.396
				c-0.482,0-0.875,0.393-0.875,0.875v0.049c0,0.482,0.393,0.875,0.875,0.875h0.13c0.482,0,0.875-0.393,0.875-0.875v-0.049
				c0-0.482-0.393-0.875-0.875-0.875H117.091z"/>
		</g>
		<g clip-path="url(#SVGID_2_)">
			<path fill="#1565C0" d="M126.921,17.625c-0.048-0.383-0.359-0.337-0.692,0.102c0,0-0.073,0.096-0.53,0.368
				c-0.458,0.273-0.986,0.409-1.584,0.409c-1.021,0-1.818-0.325-2.394-0.977c-0.574-0.65-0.741-2.043-0.741-2.043
				c-0.065-0.546-0.119-1.441-0.119-1.992V9.801c0-0.55,0.45-1,1-1h0.128c0.55,0,1,0.45,1,1v3.71c0,0.55,0.043,1.448,0.095,1.996
				c0,0,0.04,0.42,0.312,0.754c0.269,0.335,0.677,0.502,1.222,0.502c0.516,0,0.948-0.093,1.298-0.277l0.348-0.185
				c0.262-0.341,0.476-1.07,0.476-1.62v-4.88c0-0.55,0.45-1,1-1h0.137c0.55,0,1,0.45,1,1v7.519c0,0.551-0.42,1-0.932,1
				C127.429,18.32,126.969,18.007,126.921,17.625"/>
		</g>
		<g clip-path="url(#SVGID_2_)">
			<path fill="#1565C0" d="M124.114,18.629c-1.054,0-1.891-0.343-2.487-1.019c-0.593-0.672-0.765-2.053-0.771-2.111
				c-0.066-0.552-0.12-1.452-0.12-2.007V9.801c0-0.62,0.505-1.125,1.125-1.125h0.128c0.62,0,1.125,0.505,1.125,1.125v3.71
				c0,0.545,0.042,1.435,0.094,1.984c0.001,0.004,0.041,0.388,0.284,0.687c0.246,0.308,0.614,0.456,1.125,0.456
				c0.492,0,0.909-0.089,1.239-0.263l0.323-0.172c0.236-0.326,0.434-1.015,0.434-1.522v-4.88c0-0.62,0.505-1.125,1.125-1.125h0.137
				c0.62,0,1.125,0.505,1.125,1.125v7.519c0,0.62-0.474,1.125-1.057,1.125c-0.576,0-1.09-0.36-1.146-0.804
				c-0.007-0.057-0.027-0.15-0.082-0.15c-0.069,0-0.212,0.082-0.387,0.312c-0.021,0.027-0.123,0.136-0.565,0.4
				C125.288,18.486,124.733,18.629,124.114,18.629z M121.86,8.926c-0.482,0-0.875,0.393-0.875,0.875v3.691
				c0,0.546,0.053,1.434,0.118,1.978c0.002,0.014,0.17,1.361,0.711,1.975c0.548,0.62,1.321,0.935,2.3,0.935
				c0.573,0,1.085-0.132,1.52-0.392c0.41-0.244,0.495-0.337,0.499-0.341c0.2-0.265,0.402-0.406,0.582-0.406
				c0.066,0,0.287,0.026,0.33,0.369c0.04,0.317,0.451,0.585,0.897,0.585c0.444,0,0.807-0.393,0.807-0.875V9.801
				c0-0.482-0.393-0.875-0.875-0.875h-0.137c-0.482,0-0.875,0.393-0.875,0.875v4.88c0,0.575-0.225,1.336-0.501,1.696l-0.041,0.034
				l-0.348,0.185c-0.367,0.193-0.823,0.292-1.356,0.292c-0.583,0-1.027-0.185-1.319-0.549c-0.291-0.358-0.337-0.802-0.338-0.82
				c-0.053-0.556-0.096-1.457-0.096-2.008v-3.71c0-0.482-0.393-0.875-0.875-0.875H121.86z"/>
		</g>
		<g clip-path="url(#SVGID_2_)">
			<path fill="#1565C0" d="M133.965,13.549c0.167,0.523,0.351,1.167,0.408,1.428c0.059,0.261,0.117,0.475,0.131,0.475
				c0.015,0,0.161-0.429,0.325-0.954l1.487-4.743c0.165-0.525,0.75-0.954,1.3-0.954h0.34c0.551,0,0.849,0.424,0.661,0.941
				l-3.264,9.08c-0.187,0.518-0.538,1.345-0.781,1.838c0,0-0.164,0.331-0.622,0.801c-0.457,0.47-1.105,0.703-1.943,0.703
				c-0.177,0-0.366-0.016-0.568-0.052l-0.202-0.035c-0.21-0.049-0.329-0.461-0.264-0.916c0.064-0.453,0.202-0.819,0.304-0.812
				l0.141,0.012c0.141,0.012,0.246,0.019,0.316,0.019c0.387,0,0.697-0.133,0.928-0.397l0.232-0.263
				c0.184-0.358,0.414-0.845,0.511-1.082s0.021-0.854-0.169-1.369l-2.767-7.528c-0.19-0.517,0.104-0.939,0.654-0.939h0.331
				c0.55,0,1.137,0.429,1.304,0.953L133.965,13.549z"/>
		</g>
		<g clip-path="url(#SVGID_2_)">
			<path fill="#1565C0" d="M132.007,22.289c-0.192,0-0.391-0.019-0.591-0.054l-0.201-0.035c-0.328-0.076-0.432-0.601-0.366-1.057
				c0.031-0.216,0.152-0.919,0.425-0.919l0.154,0.012c0.136,0.012,0.237,0.019,0.306,0.019c0.354,0,0.626-0.116,0.833-0.354
				l0.223-0.252c0.186-0.363,0.408-0.835,0.499-1.058c0.075-0.184,0.023-0.755-0.17-1.279l-2.767-7.528
				c-0.106-0.289-0.084-0.565,0.064-0.778c0.147-0.212,0.399-0.329,0.707-0.329h0.331c0.602,0,1.24,0.466,1.423,1.04l1.207,3.795
				c0.167,0.524,0.352,1.17,0.411,1.438c0.008,0.036,0.016,0.07,0.023,0.103c0.052-0.153,0.117-0.354,0.191-0.592l1.487-4.743
				c0.181-0.574,0.817-1.041,1.419-1.041h0.34c0.309,0,0.561,0.117,0.71,0.33s0.174,0.489,0.068,0.778l-3.264,9.079
				c-0.188,0.523-0.541,1.354-0.786,1.852c-0.008,0.014-0.179,0.354-0.645,0.832C133.562,22.04,132.877,22.289,132.007,22.289z
				 M131.3,20.476c-0.05,0.066-0.148,0.312-0.203,0.702c-0.062,0.429,0.061,0.752,0.168,0.776l0.195,0.034
				c0.186,0.033,0.369,0.05,0.547,0.05c0.801,0,1.424-0.224,1.854-0.665c0.437-0.447,0.599-0.767,0.6-0.77
				c0.242-0.49,0.59-1.309,0.776-1.824L138.5,9.7c0.076-0.21,0.062-0.406-0.038-0.55c-0.102-0.144-0.281-0.224-0.506-0.224h-0.34
				c-0.492,0-1.033,0.396-1.181,0.866l-1.487,4.742c-0.325,1.042-0.334,1.042-0.444,1.042c-0.104,0-0.128-0.018-0.253-0.572
				c-0.057-0.259-0.242-0.907-0.405-1.417l-1.207-3.795c-0.149-0.469-0.692-0.866-1.185-0.866h-0.331
				c-0.224,0-0.402,0.079-0.502,0.222c-0.101,0.143-0.112,0.338-0.035,0.549l2.767,7.528c0.178,0.482,0.289,1.16,0.168,1.459
				c-0.097,0.236-0.323,0.716-0.516,1.092l-0.018,0.026l-0.232,0.263c-0.254,0.291-0.598,0.439-1.021,0.439
				c-0.072,0-0.182-0.007-0.327-0.019L131.3,20.476z"/>
		</g>
	</g>
</g>
</svg>
